<svg width="450" height="438"
  xmlns="http://www.w3.org/2000/svg">
  <g fill="#AB0008" fill-rule="nonzero">
    <path d="M224.998 128.118c-48.9 0-88.683 39.782-88.683 88.683 0 48.766 39.629 88.684 88.684 88.684 13.824 0 27.397-3.129 40.044-9.541.105-.053.198-.121.299-.179 28.674-14.709 48.339-44.584 48.339-78.965 0-48.899-39.783-88.682-88.683-88.682Zm29.156 156.34a73.502 73.502 0 0 1-58.307 0v-33.915c0-6.213 5.054-11.268 11.268-11.268h35.771c6.213 0 11.269 5.054 11.269 11.268v33.915h-.001Zm15-8.707v-25.208c0-14.484-11.785-26.269-26.27-26.269h-35.77c-14.485 0-26.269 11.784-26.269 26.269v25.208c-17.916-13.453-29.529-34.869-29.529-58.95 0-40.628 33.054-73.682 73.682-73.682s73.682 33.054 73.682 73.682c.002 24.079-11.61 45.496-29.526 58.95Z"/>
    <path d="M224.999 154.172c-17.495 0-31.727 14.232-31.727 31.727s14.233 31.728 31.727 31.728 31.727-14.233 31.727-31.728-14.231-31.727-31.727-31.727Zm0 48.455c-9.224 0-16.726-7.503-16.726-16.727 0-9.223 7.503-16.726 16.726-16.726 9.223 0 16.726 7.503 16.726 16.726.001 9.224-7.502 16.727-16.726 16.727ZM338.641 340.488H110.628a4 4 0 0 0-4 4v7a4 4 0 0 0 4 4h228.013a4 4 0 0 0 4-4v-7a4 4 0 0 0-4-4ZM338.641 369.488H110.628a4 4 0 0 0-4 4v7a4 4 0 0 0 4 4h228.013a4 4 0 0 0 4-4v-7a4 4 0 0 0-4-4Z"/>
    <path d="M13.608 438c-7.407 0-13.45-6.773-13.605-15.164L0 422.504V15.496C0 7.173 5.836.184 13.313.004L13.609 0h422.782c7.328 0 13.448 6.642 13.606 15.16l.003.336v200.38c0 .382-.025.757-.073 1.124H450v203.57c0 9.61-7.044 17.43-15.702 17.43H13.608ZM432.816 90.921H17.187a4 4 0 0 0-3.995 3.8l-.005.2-.002 324.242c-.003.001-.003.002-.003.004a3.995 3.995 0 0 0 3.804 3.988l.2.004 192.111-.171-.001.22 223.622-1.04a4 4 0 0 0 3.977-3.801l.005-.2-.001-201.101a8.561 8.561 0 0 1-.079-.937l-.004-.253V94.921a4 4 0 0 0-3.8-3.995l-.2-.005Zm0-76.038-354.35.13v.001L17.59 14.89a4 4 0 0 0-4.001 3.773l-.007.2-.367 53.018a3.999 3.999 0 0 0 3.8 4.023l.2.005h61.251v-.001h354.35a4 4 0 0 0 3.995-3.8l.005-.2V18.882l.002-.001a3.998 3.998 0 0 0-3.802-3.993l-.2-.005Z"/>
  </g>
</svg>