<svg xmlns:xlink="http://www.w3.org/1999/xlink" width="150" height="270" viewBox="0 0 969 1640" version="1.1" class="about_us_logo__CDArB"><g id="Page-1" stroke="none" stroke-width="1" fill="none" fill-rule="evenodd"><g id="logo-transp" fill-rule="nonzero"><g id="Group" transform="translate(177.764570, 592.832971)" fill="#0B3A8A"><path d="M631.27143,0.0720291948 C634.25143,-0.345970805 635.84743,1.07002919 636.15643,3.93702919 C636.41243,6.31402919 639.14443,253.230029 639.19743,267.396029 C639.22243,273.826029 202.80143,636.968029 193.19243,647.130029 C178.62843,647.114029 45.5364304,647.566029 30.2314304,647.566029 C31.3604304,644.802029 33.7434304,618.281029 29.1764304,607.695029 C25.0084304,597.564029 19.8114304,590.191029 18.6044304,588.203029 C31.4834304,574.803029 41.9854304,559.494029 53.4324304,544.939029 C59.8524304,536.773029 67.3014304,529.457029 74.5004304,521.988029 C89.4844304,506.437029 104.67043,491.052029 120.33243,476.189029 C131.06243,466.001029 140.83243,454.601029 152.45943,445.644029 C164.85943,436.091029 175.44143,424.482029 187.79943,415.251029 C217.73843,392.894029 246.08443,368.601029 275.29143,345.366029 C292.79343,331.442029 310.40243,317.637029 328.00343,303.852029 C347.50343,288.581029 367.00943,273.289029 386.56643,258.084029 C409.26943,240.434029 431.61143,222.309029 453.65643,203.824029 C487.05643,175.818029 519.58643,146.816029 549.45743,115.058029 C580.38743,82.1750292 608.37543,47.0310292 626.43943,5.05602919 C627.44443,2.72602919 628.85143,0.951029195 631.27143,0.0720291948 Z" id="Path" stroke="#353535" stroke-width="2"></path><path d="M120.92343,713.148029 C126.32743,714.945029 127.32143,717.931029 123.79043,721.843029 C115.17943,731.376029 12.6264304,828.779029 9.86843037,830.693029 C6.70243037,832.890029 3.71043037,831.564029 3.67143037,827.994029 C3.59543037,821.404029 -0.189569628,724.176029 0.0074303723,716.543029 C0.136430372,711.529029 -0.777569628,710.230029 5.75143037,709.824029 C7.26143037,709.730029 114.16843,710.902029 120.92343,713.148029 Z" id="Path"></path></g><path d="M808.741,592.856 C804.944,598.522 783.116,645.944 744.409,691.532 C719.802,723.343 641.774,788.661 612.255,812.634 C537.116,873.655 406.759,980.29 370.988,1011.308 C318.621,1056.712 200.24,1180.372 197.355,1182.626 C195.976,1180.577 191.39,1174.882 186.64,1171.62 C181.962,1168.415 177.136,1166.599 177.136,1166.057 C177.136,1141.661 175.505,1053.854 175.484,1049.057 C175.484,1047.563 175.492,1044.762 175.492,1044.659 C175.492,1040.138 176.486,1038.024 178.734,1034.479 C190.662,1008.958 206.906,986.176 223.986,963.989 C247.732,933.141 275.693,906.327 304.613,880.417 C349.199,840.472 398.029,803.026 445.656,766.958 C481.824,739.565 515.902,711.63 551.3,683.239 C577.556,662.186 649.82,596.448 653.995,595.466 C655.924,595.706 792.588,593.057 808.741,592.856 Z" id="Path" fill="#FFFFFF"></path><path d="M183.37,586.014003 C177.682,586.01 177.712,585.993 175.884,580.836 C171.792,569.295 166.894,557.996 159.443,548.328 C148.08,533.58 134.252,521.562 116.318,515.14 C105.377,511.224 94.166,508.706 82.54,507.609 C75.357,506.931 68.209,506.521 61.025,506.656 C58.236,506.709 57.091,505.865 57.096,502.939 C57.11,490.142 56.985,477.341 56.8353982,464.543 C56.808,462.031 57.754,460.793 60.33,460.963 C60.928,461.002 61.53,460.963 62.129,460.938 C92.687,459.667 878.35,446.764 901.727,446.465 C903.321,446.444 904.915,446.322 906.502,446.184 C910.512,445.83 911.531,446.514 911.572,450.643 C911.705561,463.039 911.564,475.442 911.705561,487.84 C911.742,491.111 909.945,491.09 907.531,491.274 C892.816,492.383 878.172,493.723 863.916,498.108 C837.812,506.139 817.957,521.639 805.051,545.837 C800.52,554.329 796.834,563.151 794.199,572.421 C792.845,577.192 792.726,577.224 787.572,577.249 C760.776,577.393 192.771,586.02 183.37,586.014003 Z" id="Path" fill="#1A1A18"></path><path d="M650.813,596.842 C645.612,600.281 641.54,605.53 637.274,610.272 C624.567,624.395 336.987,855.473 326.091,864.52 C300.696,885.606 276.685,908.17 254.109,932.204 C231.775,955.975 211.861,981.683 194.888,1009.622 C189.904,1017.827 184.949,1026.017 180.745,1034.645 C179.856,1036.166 175.479,1044.737 175.479,1044.61923 C175.479,1036.934 169.901,773.083 169.831,767.93 C171.983,761.543 179.62,762.051 184.288,758.412 C205.528,741.867 226.284,724.683 247.886,708.629 C271.087,691.383 293.456,673.078 316.947,656.158 C342.215,637.959 368.412,621.107 393.314,602.416 C395.476,600.795 398.043,600.353 400.328,599.17 C400.527,599.141 400.724,599.08 400.92,599.084 C416.494,599.471 651.822,595.373 653.531,595.41 C656.721,595.483 653.848,594.834 650.813,596.842 Z" id="Path" fill="#AB0008"></path><path d="M134.199,444.454944 C131.123,444.489 130.131,443.558 130.039,440.411 C129.662,427.503 129.532,427.149 142.06,426.397 C158.706,425.395 174.195,420.12 189.322,413.895 C208.42,406.038 226.582,396.135 242.652,383.092 C257.369,371.145 271.912,358.774 281.197,341.678 C283.195,337.994 285.15,334.227 286.523,330.287 C287.566,327.293 289.144,326.611 292.127,326.41 C315.488,324.826 646.529,319.592 669.716,319.207 C674.685,319.123 677.333,320.596 679.083,325.273 C682.843,335.337 689.192,343.716 696.624,351.468 C720.837,376.71 750.247,393.384 782.876,405.103 C795.575,409.666 808.716,411.851 821.903,413.968 C825.419,414.531 829.091,414.228 832.686,414.177 C835,414.142 835.903,415.14 835.864,417.4 C835.8,421.197 835.774,425.004 835.921,428.8 C836.019,431.325 835.144,432.47 832.505,432.363 C825.307,432.065 146.198,444.311 134.199,444.454944 Z" id="Path" fill="#1A1A18"></path><path d="M192.718,85.41 C199.398,81.556 203.532,76.579 208.468,72.594 C227.025,57.609 246.306,43.802 268.156,33.925 C283.578,26.951 299.734,23.766 316.578,25.467 C325.437,26.361 333.392,29.951 340.412,35.782 C356.601,49.23 358.683,66.526 353.629,85.275 C346.025,113.48 328.879,134.991 305.002,151.392 C291.094,160.946 276.311,168.787 260.33,174.326 C255.875,175.871 255.687,176.592 258.752,179.931 C264.473,186.164 269.225,193.08 272.863,200.674 C274.351,203.778 276.287,204.48 279.435,204.406 C289.83,204.171 300.23,204.148 310.626,204.145 C315.286,204.144 315.97,204.895 314.679,209.449 C312.115,218.476 309.226,227.409 306.548,236.404 C305.773,239.018 304.339,239.993 301.499,240.468 C290.552,242.301 279.558,241.109 268.597,241.516 C264.404,241.671 260.187,241.361 256.003,241.62 C252.429,241.846 250.651,240.356 249.233,237.143 C244.87,227.25 239.378,217.994 233.253,209.048 C223.708,195.102 210.001,189.643 193.894,188.569 C192.898,188.505 191.884,188.584 190.9,188.448 C187.509,187.982 186.254,186.64 186.607,183.26 C186.853,180.898 187.564,178.568 188.234,176.271 C190.42,168.791 192.873,161.38 194.814,153.836 C195.511,151.132 196.703,150.424 199.252,150.188 C223.746,147.904 247.127,141.449 269.397,131.021 C289.336,121.683 303.938,106.886 313.69,87.218 C316.073,82.412 319.057,77.896 318.725,72.084 C318.37,65.945 315.766,63.032 309.651,62.513 C301.682,61.833 294.165,63.686 286.831,66.453 C271.384,72.285 257.298,80.63 244.106,90.45 C230.139,100.847 216.934,112.192 205.417,125.271 C195.122,136.962 185.813,149.491 176.726,162.144 C163.568,180.464 150.452,198.822 138.943,218.259 C134.464,225.822 129.765,233.257 125.356,240.86 C123.557,243.964 121.335,245.25 117.66,245.18 C106.083,244.964 94.5,245.1 83.043,245.1 C82.049,242.739 83.481,241.273 84.353,239.848 C94.243,223.634 103.042,206.812 111.873,190.022 C120.8,173.043 128.953,155.671 136.245,137.907 C143.684,119.79 150.691,101.526 156.046,82.662 C157.146,78.795 158.057,74.927 158.083,70.891 C158.118,65.76 157.412,64.907 152.272,64.871 C142.274,64.807 132.275,64.926 122.275,64.9 C120.335,64.895 118.301,65.442 116.14,64.147 C118.036,55.036 120.928,46.105 123.82,37.22 C126.942,27.625 127.25,27.721 137.397,27.702 C143.794,27.69 150.199,27.84 156.592,27.663 C165.865,27.408 174.328,30.392 182.511,34.162 C186.771,36.125 189.697,39.889 191.593,44.197 C193.697,48.978 195.042,53.979 195.072,59.275 C195.11,67.662 195.577,76.066 192.718,85.41 Z" id="Path" fill="#1A1A18"></path><path d="M400.327,599.17 C394.776,604.33 175.37,767.137 169.88,770.777 C169.88,769.234 169.833,767.927 169.778,766.144 C169.809,763.148 167.417,617.673 167.481659,609.896 C167.532,604.111 167.796,604.208 173.667,603.712 C196.185,601.811 393.778,599.362 400.327,599.17 Z" id="Path" fill="#FFFFFF"></path><path d="M751.116,194.246 C756.882,194.686 762.411,194.725 767.948,194.08 C774.122,193.364 780.329,193.642 786.52,193.49 C789.282,193.423 790.108,194.647 789.321,197.204 C786.137,207.516 782.932,217.818 779.821,228.149 C779.061,230.665 777.532,231.643 774.981,231.643 C762.379,231.643 749.778,231.767 737.178,231.732 C733.49,231.722 730.08,230.312 727.032,228.394 C724.184,226.603 721.78,226.419 718.714,228.06 C707.501,234.047 695.374,236.304 682.788,235.424 C666.118,234.259 652.253,223.062 647.708,206.468 C644.331,194.139 645.895,182.288 651.673,170.989 C660.554,153.621 673.569,140.024 690.292,130.155 C706.327,120.69 723.966,115.7 742.284,112.909 C748.598,111.947 754.88,110.746 761.29,110.730872 C766.478,110.719 767.438,111.545 767.509,116.454 C767.634,125.654 767.505,134.857 767.663,144.057 C767.712,146.828 766.809,147.537 764.02,148.083 C757.114,149.436 750.114,148.823 743.172,150.024 C722.242,153.644 704.834,163.221 691.135,179.339 C687.947,183.083 685.123,187.382 684.68,192.627 C684.242,197.797 686.159,199.755 691.201,199.174 C699.931,198.168 706.402,193.614 711.125,186.328 C716.17,178.545 719.396,169.964 721.854,161.114 C722.573,158.525 723.327,157.725 725.833,158.537 C735.522,161.681 745.196,164.894 754.962,167.799 C757.972,168.694 758.14,170.149 757.343,172.637 C755.394,178.728 753.536,184.85 751.687,190.971 C751.403,191.906 751.34,192.907 751.116,194.246 Z" id="Path" fill="#1A1A18"></path><path d="M640.864,197.429 C641.729,199.734 640.639,201.613 640.096,203.444 C637.475,212.257 634.53,220.972 631.981,229.803 C630.956,233.354 629.053,234.618 625.475,234.355 C622.092,234.105 618.678,234.272 615.28,234.326 C606.948,234.455 599.563,231.566 592.938,226.834 C590.407,225.026 588.528,224.791 586.034,226.576 C582.606,229.031 578.741,230.743 574.805,232.206 C563.616,236.363 552.2,237 540.703,233.742 C523.631,228.903 515.015,211.947 514.449,198.564 C514.144,191.32 515.203,184.202 517.287,177.289 C522.525,159.875 527.891,142.498 533.254,125.124 C536.225,115.518 536.274,115.512 546.602,115.425 C554.6,115.359 562.602,115.293 570.6,115.348 C574.471,115.372 574.83,115.811 573.756,119.574 C571.451,127.644 568.981,135.666 566.541,143.698 C561.957,158.803 557.352,173.9 552.758,189.005 C551.904,191.818 549.996,195.103 552.615,197.402 C555.185,199.66 558.812,198.622 561.746,197.362 C570.617,193.55 576.887,187.537 579.307,177.644 C581.629,168.144 584.793,158.847 587.696,149.493 C590.952,138.991 594.417,128.555 597.587,118.025 C598.401,115.329 599.499,114.091 602.501,114.132 C612.698,114.271 622.899,114.083 633.101,114.14 C636.91,114.161 637.306,114.635 636.214,118.438 C633.081,129.388 629.775,140.29 626.521,151.206 C622.527,164.61 618.48,177.999 614.535,191.418 C613.398,195.285 614.717,197.014 618.879,197.091 C624.277,197.191 629.682,197.033 635.078,197.039 C637.036,197.036 639.042,196.782 640.864,197.429 Z" id="Path" fill="#1A1A18"></path><path d="M836.85,229.58 C832.053,229.58 827.239,229.33 822.457,229.63 C810.644,230.37 803.307,223.561 797.764,214.571 C793.186,207.144 792.633,198.946 795.307,190.355 C807.545,151.063 819.545,111.697 831.639,72.361 C838.328,50.594 845.034,28.831 851.737,7.068 C853.491,1.376 853.641,0.983 859.692,1.294 C868.514,1.748 877.171,-0.445 885.971,0.078 C887.364,0.161 888.766,0.117 890.162,0.143 C892.055,0.178 892.623,1.322 892.219,2.931 C891.436,6.028 890.576,9.11 889.629,12.16 C881.637,37.91 873.525,63.623 865.649,89.408 C862.325,100.29 859.141,111.235 855.708,122.068 C850.942,137.105 846.39,152.209 841.618,167.245 C839.686,173.341 837.788,179.444 835.962,185.57 C834.366,190.924 835.206,192.143 840.655,192.182 C848.85,192.242 857.048,192.103 865.243,192.147 C869.739,192.17 870.141,192.615 868.86,197.061 C865.985,207.04 862.813,216.936 859.995,226.93 C859.319,229.324 857.934,229.49 856.04,229.483 C849.645,229.464 843.245,229.476 836.851,229.476 C836.85,229.513 836.85,229.546 836.85,229.58 Z" id="Path" fill="#1A1A18"></path><path d="M463.079,200.635 C476.921,200.635 490.643,200.635 504.182,200.635 C505.155,203.659 504.184,205.921 503.494,208.197 C501.072,216.232 498.613,224.257 496.168,232.284 C494.668,237.22 494.262,237.604 489.043,237.642 C475.649,237.741 462.247,237.495 448.86,237.891 C435.276,238.292 423.003,222.808 422.719,212.018 C422.469,202.47 425.614,193.966 428.117,185.184 C430.254,177.691 432.728,170.293 434.916,162.817 C436.631,156.963 435.283,155.28 429.029,155.136 C425.633,155.058 422.236,155.073 418.838,155.009 C418.471,155 418.108,154.731 417.408,154.446 C418.316,149.241 420.144,144.229 421.705,139.151 C423.289,133.995 425.125,128.906 426.48,123.691 C427.443,119.979 429.709,118.345 433.253,118.18 C437.444,117.985 441.646,117.887 445.843,117.887 C447.986,117.887 448.853,117.088 449.48,114.929 C452.982,102.845 456.804,90.852 460.339,78.777 C461.22,75.769 462.814,74.926 465.616,75.772 C474.979,78.599 484.332,81.461 493.709,84.247 C496.57,85.099 496.783,87.054 496.092,89.401 C494.227,95.725 492.35,102.047 490.375,108.338 C487.785,116.599 487.82,116.687 496.436,116.68 C507.538,116.67 507.438,116.64 504.063,127.039 C501.598,134.63 499.366,142.3 497.184,149.977 C496.413,152.678 495.08,154.034 492.137,153.916 C488.346,153.769 484.537,153.908 480.741,153.937 C478.387,153.953 476.45,154.523 475.647,157.141 C471.483,170.694 467.258,184.228 463.1,197.782 C462.892,198.483 463.079,199.308 463.079,200.635 Z" id="Path" fill="#1A1A18"></path><path d="M382.267,239.181 C377.472,239.181 372.621,238.706 367.892,239.271 C354.701,240.843 343.796,228.68 340.994,219.493 C339.109,213.313 338.746,207.21 340.584,200.693 C347.781,175.151 355.717,149.839 363.459,124.464 C364.416,121.328 365.621,119.735 369.01,119.705 C378.994,119.617 388.979,119.225 398.963,119.195909 C403.119,119.184 403.807,120.35 402.567,124.495 C397.581,141.133 392.503,157.738 387.491,174.367 C385.186,182.013 382.927,189.672 380.71,197.343 C379.497,201.553 379.796,202.057 384.505,202.141 C390.493,202.246 396.489,202.024 402.484,201.953 C405.279,201.923 408.082,201.807 410.871,201.932 C414.541,202.097 415.004,202.698 413.947,206.408 C411.105,216.391 408.068,226.32 405.258,236.313 C404.653,238.48 403.545,239.148 401.447,239.124 C395.052,239.049 388.66,239.098 382.269,239.098 C382.267,239.124 382.267,239.152 382.267,239.181 Z" id="Path" fill="#1A1A18"></path><path d="M396.63,89.1361354 C382.079,89.178 373.155,79.443 372.142,64.844 C371.044,49.102 386.785,38.973 397.747,38.779 C410.612,38.551 422.942,51.961 422.188,64.563 C421.28,79.728 412.384,89.09 396.63,89.1361354 Z" id="Path" fill="#1A1A18"></path><path d="M963.444,1223.583 C948.676,1224.407 522.499,1249.396 514.13,1249.735 C511.985,1249.823 510.079,1249.165 509.161,1247.094 C508.069,1244.627 841.507,948.024 846.327,943.52 C847.337,942.579 848.636,941.594 847.905,939.981 C847.02,938.02 845.128,938.612 843.716,938.936 C831.138,941.809 770.482,963.795 749.403,976.204 C735.094,984.626 721.464,994.1 708.423,1004.356 C697.753,1012.745 687.476,1021.624 676.933,1030.172 C666.236,1038.846 655.152,1047.065 644.73,1056.053 C630.501,1068.321 615.509,1079.619 601.017,1091.549 C589.454,1101.063 577.476,1110.072 565.804,1119.459 C550.095,1132.09 534.835,1145.301 518.783,1157.469 C497.623,1173.502 478.127,1191.512 457.346,1207.989 C443.926,1218.632 430.946,1229.872 417.762,1240.835 C416.231,1242.106 414.774,1243.626 413.008,1244.427 C404.258,1248.388 395.094,1251.544 385.674,1252.933 C373.483,1254.728 232.033,1255.814 195.629,1255.808 C194.432,1255.808 193.233,1255.673 192.033,1255.689 C189.695,1255.712 189,1254.474 188.969,1252.291 C188.877,1246.465 190.11,1240.791 190.725,1235.051 C191.743,1225.498 192.713,1215.807 190.395,1206.446 C186.913,1192.413 179.752,1179.801 168.438,1170.885 C153.394,1159.031 129.275,1153.864 110.82,1152.076 C91.812,1150.238 72.944,1151.756 54.831,1159.084 C31.489,1168.529 21.285,1177.23 8.393,1199.832 C0.805,1213.139 -1.443,1227.334 0.955,1242.043 C3.37,1256.85 10.027,1270.125 19.187,1282.01 C31.041,1297.391 45.857,1309.469 62.145,1319.862 C64.722,1321.508 67.14,1321.717 70.079,1320.841 C78.686,1318.278 87.397,1316.103 96.202,1314.277 C111.064,1311.197 125.871,1307.888 140.14,1302.548 C147.112,1299.937 154.037,1297.007 159.6,1292.134 C164.051,1288.234 169.031,1287.382 174.363,1286.728 C175.551,1286.582 208.804,1283.087 224.291,1282.199 C240.072,1281.293 255.711,1283.095 271.32,1285.553 C294.302,1289.172 315.804,1296.631 335.539,1308.953 C339.752,1311.586 343.57,1314.867 347.508,1317.928 C350.053,1319.903 339.07,1366.09 332.262,1378.815 C323.352,1395.458 312.02,1410.247 298.942,1423.965 C279.903,1443.94 257.944,1459.528 233.212,1471.426 C218.087,1478.699 202.825,1485.701 187.733,1493.043 C178.2,1497.682 168.995,1502.945 160.537,1509.398 C157.829,1511.461 155.418,1513.73 154.2,1517.158 C147.596,1535.773 145.222,1554.82 148.387,1574.379 C152.045,1597.006 163.539,1615.109 181.756,1628.645 C200.613,1642.651 246.022,1643.651 277.67,1627.827 C293.674,1619.825 321.641,1592.864 327.561,1580.899 C334.17,1567.592 335.881,1553.542 335.706,1538.842 C335.53,1524.16 330.054,1512.174 320.315,1501.649 C311.292,1491.897 300.065,1485.42 288.174,1480.061 C279.914,1476.34 280.871,1476.151 286.651,1470.327 C328.624,1428.013 371.465,1386.575 413.827,1344.647 C421.647,1336.909 429.448,1329.151 437.233,1321.377 C438.962,1319.65 440.696,1318.324 443.374,1318.121 C459.026,1316.932 815.045,1283.924 820.112,1282.92 C831.844,1280.596 843.6,1278.262 855.175,1275.266 C883.488,1267.93 910.972,1258.28 937.013,1244.78 C946.431,1239.897 955.751,1234.885 964.284,1228.538 C965.78,1227.425 967.848,1226.661 968.046,1224.214 C966.59,1222.954 964.918,1223.5 963.444,1223.583 Z M162.882,1260.231 C143.908,1281.252 119.701,1288.909 92.36,1288.512 C71.988,1288.215 53.244,1282.451 37.651,1268.871 C23.652,1256.682 16.607,1241.308 19.362,1222.467 C20.624,1213.848 24.271,1205.965 29.748,1199.158 C40.256,1186.097 54.056,1177.931 69.985,1173.301 C79.214,1170.617 88.612,1168.66 96.192,1169.285 C118.105,1169.062 136.259,1174.211 152.494,1185.605 C163.171,1193.101 170.919,1203.084 174.013,1215.718 C178.05,1232.235 174.624,1247.219 162.882,1260.231 Z M293.374,1503.381 C310.067,1512.986 318.77,1527.67 317.813,1546.924 C317.122,1560.797 311.592,1573.379 302.62,1584.069 C286.866,1602.829 266.749,1614.596 242.688,1618.919 C227.364,1621.671 212.008,1621.192 197.375,1614.728 C180.793,1607.402 170.434,1594.972 167.338,1577.044 C165.248,1564.94 168.537,1553.552 174.055,1542.911 C181.315,1528.909 192.328,1518.341 205.649,1510.036 C217.163,1502.856 229.604,1498.079 242.917,1495.718 C247.991,1494.818 253.216,1494.753 258.374,1494.312 C271.013,1493.762 282.618,1497.192 293.374,1503.381 Z M433.817,1297.198 C425.784,1295.688 419.948,1288.95 419.925942,1281.505 C419.905,1273.118 425.614,1266.095 433.817,1264.622 C433.817,1275.485 433.817,1286.309 433.817,1297.198 Z M439.05,1297.198 C439.05,1286.309 439.05,1275.483 439.05,1264.622 C447.251,1266.095 452.962,1273.118 452.943047,1281.507 C452.919,1288.95 447.083,1295.688 439.05,1297.198 Z" id="Shape" fill="#1A1A18"></path></g></g></svg>