<svg width="486" height="481"
  xmlns="http://www.w3.org/2000/svg">
  <g fill="#AB0008" fill-rule="nonzero">
    <path d="M232 136.807v-112c0-13.255-10.745-24-24-24H24c-13.255 0-24 10.745-24 24v112c0 13.255 10.745 24 24 24h184c13.255 0 24-10.745 24-24Zm-216-112a8 8 0 0 1 8-8h184a8 8 0 0 1 8 8v24H16v-24Zm0 112v-72h200v72a8 8 0 0 1-8 8H24a8 8 0 0 1-8-8Z"/>
    <rect x="112" y="304.807" width="72" height="16" rx="4"/>
    <rect x="112" y="336.807" width="113" height="16" rx="4"/>
    <rect x="112" y="272.807" width="112" height="16" rx="4"/>
    <rect x="112" y="240.807" width="112" height="16" rx="4"/>
    <rect x="112" y="208.807" width="176" height="16" rx="4"/>
    <rect x="144" y="176.807" width="216" height="16" rx="4"/>
    <path d="m483.272 399.271-66.568-66.544-20.472-61.408 13.472-13.472c9.45-9.295 9.575-24.49.28-33.94s-24.49-9.575-33.94-.28c-.093.091-.185.183-.276.276l-13.48 13.48-46.216-15.408a8.001 8.001 0 0 0-6.112.432l-67.88 33.936a8 8 0 0 0-4.424 7.2v45.256a8 8 0 0 0 8 8H271.6v11.312l-31.6 31.56a7.931 7.931 0 0 0-2.184 4.088l-5.656 28.248a8 8 0 0 0 9.44 9.448l28.288-5.656a8.074 8.074 0 0 0 4.088-2.184l22.624-22.632 39.6 39.6 67.88 67.88a8 8 0 0 0 11.312 0l67.88-67.88a8 8 0 0 0 0-11.312ZM387.08 235.207a8.007 8.007 0 0 1 11.32 11.328l-56.568 56.568-11.32-11.312 56.568-56.584Zm-133.424 65.552v-32.312l60.496-30.248 35.488 11.832-30.44 30.44-5.656-5.656a8 8 0 0 0-7.2-2.184l-28.288 5.656a8 8 0 0 0-6.4 7.848v14.624h-18Zm-3.456 82.656 2.256-11.288 9.032 9.032-11.288 2.256Zm23.736-12.432-11.312-11.312 11.32-11.32 11.312 11.32-11.32 11.312Zm13.664-31.6v-46.696l17.656-3.528 36.568 36.568a8.001 8.001 0 0 0 11.316-.004 8.001 8.001 0 0 0-.004-11.316l30.448-30.4 16.968 50.872-58.728 58.728-54.224-54.224Zm122.104 122.112-56.568-56.568 56.568-56.576 56.568 56.576-56.568 56.568Z"/>
    <path d="M352 464.807H88c.012-8.689.012-15.343 0-24v-268a4 4 0 0 0-4-4h-8a4 4 0 0 0-4 4v298c0 5.523 4.477 10 10 10h270c5.636.002 13.02-2.504 22.154-7.52a4 4 0 0 0 1.072-6.154l-5.196-5.883a4 4 0 0 0-4.915-.862c-5.398 2.95-9.77 4.422-13.115 4.419ZM376 40.807v156a4 4 0 0 0 4 4h8a4 4 0 0 0 4-4v-186c0-5.523-4.477-10-10-10H252a4 4 0 0 0-4 4v8a4 4 0 0 0 4 4h124c0 6.918-.012 15.343 0 24Z"/>
    <rect x="144" y="424.807" width="168" height="16" rx="4"/>
    <path d="M360 40.807a8 8 0 0 0-8-8h-80a8 8 0 0 0-8 8v80a8 8 0 0 0 8 8h80a8 8 0 0 0 8-8v-80Zm-16 72h-64v-64h64v64Z"/>
  </g>
</svg>